<svg width="250" height="250" viewBox="0 0 250 250" fill="none" xmlns="http://www.w3.org/2000/svg">
<path d="M250 0H0V250H250V0Z" fill="#E9EAED"/>
<rect x="8" y="66" width="118" height="118" rx="14" fill="#A8B6C0"/>
<path d="M69.7917 123.8L71.0313 125.9L72.4896 128.6L74.5312 126.9L77.2292 124.6V132.2H61.4792V124.6L64.6146 127.3L66.5833 128.9L68.0417 126.5L69.7917 123.8ZM80 118L73.2187 123.7L69.9375 118L66.2188 124.1L59 118V135.9H80V118Z" fill="white"/>
<rect x="132" y="66" width="110" height="55" rx="14" fill="white"/>
<rect x="132" y="66" width="55" height="55" rx="14" fill="#A8B6C0"/>
<rect x="132" y="127" width="110" height="57" rx="14" fill="#A8B6C0"/>
<path d="M229.269 114H196.731C194.642 114 193 112.862 193 111.414V110.586C193 109.138 194.642 108 196.731 108H229.269C231.358 108 233 109.138 233 110.586V111.414C233 112.862 231.358 114 229.269 114Z" fill="#EDF0F3"/>
<rect x="193" y="72" width="41" height="10" rx="5" fill="#EDF0F3"/>
<rect x="194" y="84" width="27" height="10" rx="5" fill="#EDF0F3"/>
</svg>
