<svg width="250" height="250" viewBox="0 0 250 250" fill="none" xmlns="http://www.w3.org/2000/svg">
<g clip-path="url(#clip0_6_7)">
<path d="M250 0H0V250H250V0Z" fill="#E9EAED"/>
<rect x="66" y="43" width="118" height="164" rx="14" fill="#A8B6C0"/>
<path d="M125.33 123.212L126.402 124.737L127.663 126.698L129.428 125.464L131.761 123.793V129.313H118.143V123.793L120.854 125.754L122.556 126.916L123.817 125.173L125.33 123.212ZM134.156 119L128.293 123.14L125.456 119L122.241 123.43L116 119V132H134.156V119Z" fill="white"/>
<path d="M73 74C73 71.2386 75.2386 69 78 69H153C155.761 69 158 71.2386 158 74V74C158 76.7614 155.761 79 153 79H78C75.2386 79 73 76.7614 73 74V74Z" fill="#EDF0F3"/>
<rect x="73" y="54" width="27" height="10" rx="5" fill="#EDF0F3"/>
<circle cx="85.5" cy="187.5" r="9.5" fill="white"/>
<path d="M85 184.75C83.3422 184.75 81.975 185.991 81.775 187.594C81.9219 187.534 82.0812 187.5 82.25 187.5C82.6641 187.5 83 187.836 83 188.25V190.25C83 190.664 82.6641 191 82.25 191C81.5594 191 81 190.441 81 189.75V189.5V188.75V188C81 185.791 82.7906 184 85 184C87.2094 184 89 185.791 89 188V188.75V189.5V189.75C89 190.441 88.4406 191 87.75 191C87.3359 191 87 190.664 87 190.25V188.25C87 187.836 87.3359 187.5 87.75 187.5C87.9188 187.5 88.0781 187.533 88.225 187.594C88.025 185.991 86.6578 184.75 85 184.75Z" fill="black"/>
</g>
<defs>
<clipPath id="clip0_6_7">
<rect width="250" height="250" fill="white"/>
</clipPath>
</defs>
</svg>
