<svg width="250" height="250" viewBox="0 0 250 250" fill="none" xmlns="http://www.w3.org/2000/svg">
<g clip-path="url(#clip0_5_2)">
<path d="M250 0H0V250H250V0Z" fill="#E9EAED"/>
<path d="M250 0H0V47.26H250V0Z" fill="white"/>
<path d="M135.41 30.98C135.4 31.13 135.27 31.24 135.12 31.22L133.98 31.1C130.95 30.79 127.9 30.63 124.85 30.63H124.75C121.7 30.63 118.65 30.79 115.61 31.1L114.53 31.21C114.38 31.23 114.25 31.12 114.24 30.97L113.1 17.81C113.08 17.6 113.3 17.46 113.48 17.55L119.91 20.78C120.02 20.84 120.16 20.81 120.23 20.71L124.57 15.35C124.68 15.22 124.87 15.22 124.98 15.35L129.32 20.71C129.4 20.81 129.53 20.84 129.64 20.78L136.06 17.56C136.24 17.47 136.46 17.61 136.44 17.82L135.41 30.98ZM116.96 22.69L117.42 27.53C117.43 27.65 117.55 27.74 117.68 27.73C120.03 27.55 122.41 27.45 124.77 27.45C124.78 27.45 124.8 27.45 124.81 27.45C127.18 27.45 129.56 27.54 131.93 27.73C132.06 27.74 132.18 27.65 132.19 27.53L132.61 22.68C132.62 22.51 132.43 22.39 132.27 22.47L128.53 24.19C128.43 24.24 128.31 24.21 128.24 24.13L124.98 20.44C124.88 20.33 124.71 20.33 124.61 20.44L121.35 24.13C121.28 24.21 121.16 24.23 121.06 24.19L117.34 22.48C117.13 22.4 116.94 22.52 116.96 22.69Z" fill="#A8B6C0"/>
<rect x="5" y="141" width="42" height="64" rx="9" fill="#A8B6C0"/>
<rect x="54" y="141" width="42" height="64" rx="9" fill="#A8B6C0"/>
<rect x="103" y="141" width="43" height="64" rx="9" fill="#A8B6C0"/>
<rect x="153" y="141" width="42" height="64" rx="9" fill="#A8B6C0"/>
<rect x="202" y="141" width="42" height="64" rx="9" fill="#A8B6C0"/>
<rect x="56" y="71" width="137" height="11" rx="5.5" fill="#8E9FAB"/>
<rect x="69" y="90" width="111" height="8" rx="4" fill="#A8B6C0"/>
<rect x="107" y="107" width="36" height="11" rx="5.5" fill="#535353"/>
</g>
<defs>
<clipPath id="clip0_5_2">
<rect width="250" height="250" fill="white"/>
</clipPath>
</defs>
</svg>
